# xmcd CD database file
#
# Track frame offsets:
#	150
#	19203
#	41257
#	60596
#	77737
#	96660
#	120337
#	150345
#	170484
#	193860
#	214350
#
# Disc length: 3038 seconds
#
# Revision: 0
# Processed by: cddbd v1.5.1PL0 Copyright (c) Steve Scherf et al.
# Submitted via: CDex 1.51
#
DISCID=8e0bdc0b
DTITLE=MASK feat. MICHIRU - ミッチィーランド
DYEAR=2004
DGENRE=ロック (日本)
TTITLE0=ミッチィーノイローゼ
TTITLE1=色オニ
TTITLE2=楽園
TTITLE3=接吻
TTITLE4=夢柔力
TTITLE5=フレーム オブ マインド
TTITLE6=デプロファンディス
TTITLE7=∞
TTITLE8=メモライズ
TTITLE9=眠り姫
TTITLE10=END
EXTD=YEAR: 2004
EXTT0=
EXTT1=
EXTT2=
EXTT3=
EXTT4=
EXTT5=
EXTT6=
EXTT7=
EXTT8=
EXTT9=
EXTT10=
PLAYORDER=
